<?xml version="1.0" encoding="UTF-8"?>
<svg version="1.1" viewBox="0 0 32 32" xmlns="http://www.w3.org/2000/svg">
<path d="m1.8167 0h28.367c1.0065 0 1.8167 0.81027 1.8167 1.8167v28.366c0 1.0065-0.81027 1.8168-1.8167 1.8168h-28.367c-1.0065 0-1.8167-0.81027-1.8167-1.8168v-28.366c0-1.0065 0.81027-1.8167 1.8167-1.8167z" fill="#3490dc" stroke-width=".1697" style="paint-order:stroke fill markers"/><path d="m8.5 25c-0.828 0-1.5-0.672-1.5-1.5s0.672-1.5 1.5-1.5c2.489 0 4.285-3.266 6.186-6.723 2.238-4.069 4.553-8.277 8.814-8.277 0.828 0 1.5 0.672 1.5 1.5s-0.672 1.5-1.5 1.5c-2.489 0-4.285 3.266-6.186 6.723-2.238 4.069-4.553 8.277-8.814 8.277z" fill="#fff"/></svg>