<?xml version="1.0" encoding="UTF-8"?>
<svg width="200mm" height="200mm" version="1.1" viewBox="0 0 200 200" xmlns="http://www.w3.org/2000/svg">
 <path d="m29.334 0h141.33c16.25 0 29.334 9.812 29.334 22v106c0 12.188-13.083 22-29.334 22h-141.33c-16.25 0-29.334-9.812-29.334-22v-106c0-12.188 13.083-22 29.334-22z" fill="#e82633"/>
 <path d="m61.387 111.92c-4.263 0-7.7228-3.4598-7.7228-7.7228s3.4598-7.7228 7.7228-7.7228c12.814 0 22.061-16.815 31.848-34.613 11.522-20.949 23.441-42.614 45.378-42.614 4.263 0 7.7228 3.4598 7.7228 7.7228s-3.4598 7.7228-7.7228 7.7228c-12.814 0-22.061 16.815-31.848 34.613-11.522 20.949-23.441 42.614-45.378 42.614z" fill="#fff"/>
 <g transform="translate(0,65)">
  <path d="m0 65h200v70h-200z" fill="#ccc"/>
  <path d="m138.41 70h53.187c1.8871 0 3.4064 1.5193 3.4064 3.4064v53.187c0 1.8872-1.5193 3.4064-3.4064 3.4064h-53.187c-1.8872 0-3.4064-1.5193-3.4064-3.4064v-53.187c0-1.8872 1.5193-3.4064 3.4064-3.4064z" fill="#38c172"/>
  <path d="m153.67 113.18c-4.115-4.4591-8.4217-8.751-12.369-13.361-4.9885-6.7492-3.6088-17.447 3.2243-22.381 4.9758-3.8417 12.675-3.1386 16.828 1.6341 1.2237 1.218 2.4328 2.4511 3.649 3.6768 3.0601-3.0696 5.9571-6.8884 10.494-7.5458 6.0855-1.3562 12.418 2.5838 14.76 8.3102 2.8316 6.1697 1.3699 14.049-3.5954 18.644-7.1834 7.6717-14.361 15.352-21.67 22.899-3.8288-3.9032-7.5567-7.9097-11.322-11.877z" fill="#e3342f"/>
  <path d="m73.406 70h53.187c1.8872 0 3.4064 1.5193 3.4064 3.4064v53.187c0 1.8872-1.5193 3.4064-3.4064 3.4064h-53.187c-1.8872 0-3.4064-1.5193-3.4064-3.4064v-53.187c0-1.8872 1.5193-3.4064 3.4064-3.4064z" fill="#9561e2"/>
  <path d="m82.013 124.19c-0.77446-0.15212-1.6493-0.80332-2.0243-1.5068-0.41578-0.78009-0.38951 0.10969-0.38951-13.196v-12.085h-1.7535c-1.9902 0-2.3012-0.04773-2.7362-0.42004-0.66024-0.56514-0.57219-1.4198 0.22515-2.1856 0.37757-0.36263 22.215-18.166 22.693-18.501 0.64648-0.45296 1.7955-0.6661 2.6775-0.49668 0.8978 0.17244 1.101 0.31758 5.6794 4.0564 2.3474 1.9169 4.2927 3.4853 4.323 3.4853s0.0556-0.59144 0.0565-1.3143c1e-3 -1.4719 0.0377-1.6341 0.45663-2.0531 0.46655-0.46654 0.4412-0.46256 3.0741-0.48268 1.5238-0.01164 2.4488 0.0061 2.6101 0.04922 0.36378 0.09795 0.75251 0.42573 0.9771 0.8239l0.19649 0.34837 0.0418 8.741 3.1999 2.597c1.76 1.4283 3.3366 2.7456 3.5036 2.9272 0.31246 0.33986 0.50711 0.77147 0.50711 1.1244 0 0.27518-0.24345 0.72204-0.50671 0.93004-0.40142 0.31716-0.79137 0.37058-2.7053 0.37058h-1.7286v12.085c0 13.137 0.0194 12.399-0.34443 13.117-0.21462 0.42354-0.7114 0.947-1.148 1.2096-0.74144 0.44602-0.61772 0.43728-6.2543 0.44138-5.626 4e-3 -5.5884 6e-3 -6.2931-0.41552-0.79695-0.4773-1.39-1.2878-1.542-2.1073-0.0387-0.20916-0.0632-2.3188-0.0632-5.4518 0-5.6653 0.0158-5.4401-0.4158-5.9443-0.42361-0.49486-0.35779-0.48741-4.303-0.48741-3.4016 0-3.4904 3e-3 -3.7687 0.13249-0.41437 0.19261-0.66514 0.42855-0.85017 0.79986l-0.16328 0.32764-0.0011 5.1656c-0.0011 5.6831-0.0011 5.6824-0.38533 6.4032-0.39667 0.74423-1.1898 1.3413-2.0078 1.5113-0.40627 0.0844-10.407 0.0858-10.837 8.8e-4z" fill="#ffed4a"/>
  <path d="m8.4064 70h53.187c1.8872 0 3.4064 1.5193 3.4064 3.4064v53.187c0 1.8872-1.5192 3.4064-3.4064 3.4064h-53.187c-1.8871 0-3.4064-1.5193-3.4064-3.4064v-53.187c0-1.8872 1.5193-3.4064 3.4064-3.4064z" fill="#3490dc"/>
  <path d="m13.024 120.77c-0.10261 0.44892-0.96407-0.23509-1.3625-0.47452-0.31906-0.19176-0.48549-0.32564-0.76376-0.61429-0.47837-0.49624-0.78169-1.0799-0.93161-1.7926-0.06801-0.32336-0.06818-1.0106-3.15e-4 -1.3523 0.14092-0.70975 0.46962-1.3188 0.99559-1.8448 0.54404-0.54403 1.1553-0.86425 1.9303-1.0112 0.15159-0.0287 4.4672-0.0359 22.123-0.0359 20.952 0 21.945 2e-3 22.18 0.05 0.72281 0.14719 1.3102 0.46488 1.8448 0.99779 0.70613 0.70385 1.0453 1.5229 1.0453 2.5238 0 1.001-0.33921 1.82-1.0453 2.5238-0.52828 0.52663-1.0762 0.82525-1.8345 0.99985-0.18462 0.0426-1.8886 0.0463-22.092 0.0507-12.749 3e-3 -22.063-0.1327-22.089-0.0205zm0-17.226c-0.45679-0.0585-0.96407-0.23509-1.3625-0.47454-0.31906-0.19176-0.48549-0.32562-0.76376-0.61428-0.47837-0.49622-0.78169-1.0798-0.93161-1.7926-0.06801-0.32335-0.06818-1.0106-3.15e-4 -1.3523 0.14092-0.70975 0.46962-1.3188 0.99559-1.8448 0.54404-0.54405 1.1553-0.86428 1.9303-1.0112 0.15159-0.0288 4.4672-0.03572 22.123-0.03572 20.952 0 21.945 0.0021 22.18 0.05004 0.72281 0.14719 1.3102 0.46489 1.8448 0.99779 0.70613 0.70388 1.0453 1.5229 1.0453 2.5238 0 1.001-0.33921 1.82-1.0453 2.5238-0.52828 0.52662-1.0762 0.82523-1.8345 0.99983-0.18462 0.0426-1.8886 0.0465-22.092 0.0507-12.749 3e-3 -21.974-6e-3 -22.089-0.0205zm0-17.225c-0.45679-0.05837-0.96407-0.2351-1.3625-0.47454-0.31906-0.19176-0.48549-0.32561-0.76376-0.61428-0.47837-0.49624-0.78169-1.0799-0.93161-1.7926-0.06801-0.32335-0.06818-1.0106-3.15e-4 -1.3523 0.14092-0.70975 0.46962-1.3188 0.99559-1.8448 0.54404-0.54405 1.1553-0.86428 1.9303-1.0112 0.15159-0.0288 4.4672-0.03572 22.123-0.03572 20.952 0 21.945 0.0021 22.18 0.05004 0.72281 0.14718 1.3102 0.46488 1.8448 0.99777 0.70613 0.70389 1.0453 1.5229 1.0453 2.5239s-0.33921 1.82-1.0453 2.5239c-0.52828 0.5266-1.0762 0.82521-1.8345 0.99981-0.18462 0.04246-1.8886 0.04646-22.092 0.05058-12.749 0.0031-21.974-0.0064-22.089-0.02056z" fill="#fff"/>
 </g>
</svg>