<?xml version="1.0" encoding="UTF-8"?>
<svg width="512mm" height="512mm" version="1.1" viewBox="0 0 512 512" xmlns="http://www.w3.org/2000/svg">
 <path d="m134.28 58.462c-2.9855 0-5.9649 1.1426-8.2539 3.4285l-111.84 111.81c-4.5705 4.5705-6.4644 16.508 0 16.508h65.459v233.14c0 16.726 13.463 30.19 30.19 30.19h48.856c16.727 0 30.222-13.463 30.222-30.19v-233.14h65.427c6.4644-1e-3 4.5705-11.936 0-16.508l-111.81-111.81c-2.2852-2.2865-5.2708-3.4285-8.2539-3.4285z" fill="#3771c8" stroke="#afdde9" stroke-width="20" style="paint-order:stroke fill markers"/>
 <path d="m465.76 220.88c-7.4535 0.11166-14.847 3.2382-20.196 9.2903l-122.94 139.09-51.557-51.298c-10.776-10.724-28.083-10.689-38.806 0.11167l-7.9632 8.0208c-10.724 10.775-10.689 28.082 0.11167 38.806l80.179 79.746c10.775 10.724 28.083 10.689 38.805-0.11165l6.6362-6.6362c0.84864-0.75372 1.6526-1.58 2.4231-2.451l142.73-161.46c10.068-11.39 8.9956-28.651-2.3952-38.719l-8.4534-7.4725c-5.3375-4.7178-11.975-7.0141-18.551-6.9242z" fill="#5fd35f" stroke="#d7f4d7" stroke-width="20" style="paint-order:stroke fill markers"/>
</svg>
