<?xml version="1.0" encoding="UTF-8"?>
<svg enable-background="new 0 0 32 32" version="1.1" viewBox="0 0 32 32" xml:space="preserve" xmlns="http://www.w3.org/2000/svg">
   <g transform="translate(-.025695 -.7582)">
   <g transform="matrix(.7243 0 0 .7243 8.8222 11.562)" stroke-opacity=".99608">
   <path d="m29 23h-26c-1.1 0-2-0.9-2-2v-10c0-1.1 0.9-2 2-2h26c1.1 0 2 0.9 2 2v10c0 1.1-0.9 2-2 2z" fill="#9494b8" stroke="#5c5c8a" stroke-width="2.071"/>
   <path class="st0" d="m13 19c-1.1 0-2-0.9-2-2v-2c0-1.1 0.9-2 2-2s2 0.9 2 2v2c0 1.1-0.9 2-2 2z" fill="none" stroke="#fff" stroke-width="1.3806"/><g fill-opacity=".99608" stroke="#fff" stroke-width="1.3806">
   <line class="st0" x1="18" x2="18" y1="13" y2="19" fill="#5c5c8a"/>
   <line class="st0" x1="21" x2="18" y1="13" y2="17" fill="#5c5c8a"/>
   <line class="st0" x1="21" x2="19" y1="19" y2="16" fill="#9494b8"/>
   </g></g>
   <g transform="matrix(.7243 0 0 .7243 8.8222 -1.2236)">
   <path d="m29 23h-26c-1.1 0-2-0.9-2-2v-10c0-1.1 0.9-2 2-2h26c1.1 0 2 0.9 2 2v10c0 1.1-0.9 2-2 2z" fill="#0d6efd" stroke="#00bfff" stroke-width="2.071"/><g stroke="#fff" stroke-width="1.3806">
   <path class="st1" d="m13 19c-1.1 0-2-0.9-2-2v-2c0-1.1 0.9-2 2-2s2 0.9 2 2v2c0 1.1-0.9 2-2 2z" fill="none"/>
   <line class="st1" x1="18" x2="18" y1="13" y2="19"/>
   <line class="st1" x1="21" x2="18" y1="13" y2="17"/>
   <line class="st1" x1="21" x2="19" y1="19" y2="16" fill="none"/>
   </g></g>
   </g>
   <path d="m3.9333 16.008q0.83195 0.71005 1.3007 1.5976 0.4687 0.87143 0.65618 2.2431 0.18748 1.3556 0.18748 3.4857 0 1.5976 0.04687 2.3561 0.05859 0.75846 0.21092 1.1458 0.16405 0.40344 0.38668 0.5164 0.22263 0.1291 0.76164 0.24206 0.44527 0.08069 0.73821 0.59709t0.29294 1.3556q0 1.9526-1.7225 1.9526-1.0663 0-1.91-0.61323-0.83195-0.61323-1.2889-1.7429-0.45699-1.1135-0.4687-2.5659-0.03515-2.4529-0.07031-3.9376-0.03515-1.4847-0.10546-1.9204-0.17576-1.0812-0.52729-1.6299-0.33981-0.54868-0.90226-1.0167-0.55073-0.48413-0.78508-0.85529-0.23435-0.3873-0.23435-1.2103 0-1.1942 0.67962-1.7913 0.84367-0.72619 1.1952-1.2265 0.36324-0.5164 0.50386-1.3071 0.15233-0.80688 0.17576-1.7429 0.02343-0.95211 0.07031-4.5508 0.03515-2.227 1.0194-3.5503 0.996-1.3394 2.6482-1.3394 1.7225 0 1.7225 1.9204 0 0.87143-0.29294 1.3717-0.28122 0.50026-0.73821 0.58095-0.67962 0.1291-0.94912 0.3873t-0.35153 1.0005q-0.08202 0.74233-0.10546 2.8725-0.02343 2.0817-0.18748 3.4212-0.15233 1.3233-0.62103 2.2593-0.45699 0.93598-1.3358 1.6944z" fill="#333" stroke="#4d4d4d"/>
   <style type="text/css">
	.st0{fill:#9494b8;stroke:white;stroke-width:1.5;stroke-linecap:round;stroke-linejoin:round;stroke-miterlimit:10;}
    .st1{fill:#0d6efd;stroke:white;stroke-width:1.5;stroke-linecap:round;stroke-linejoin:round;stroke-miterlimit:10;}
   </style>
</svg>
