<?xml version="1.0" encoding="UTF-8"?>
<svg width="512mm" height="512mm" version="1.1" viewBox="0 0 512 512" xmlns="http://www.w3.org/2000/svg">
 <path d="m134.28 58.462c-2.9855 0-5.9649 1.1426-8.2539 3.4285l-111.84 111.81c-4.5705 4.5705-6.4644 16.508 0 16.508h65.459v233.14c0 16.726 13.463 30.19 30.19 30.19h48.856c16.727 0 30.222-13.463 30.222-30.19v-233.14h65.427c6.4644-1e-3 4.5705-11.936 0-16.508l-111.81-111.81c-2.2852-2.2865-5.2708-3.4285-8.2539-3.4285z" fill="#3771c8" stroke="#afdde9" stroke-width="20" style="paint-order:stroke fill markers"/>
 <path d="m268.16 214.36c-7.4006-0.10384-14.865 2.451-20.875 7.759l-6.3716 5.6279c-12.821 11.324-14.027 30.763-2.7029 43.584l66.776 75.606-66.776 75.606c-11.324 12.821-10.118 32.26 2.7029 43.584l6.3716 5.6274c12.821 11.324 32.26 10.119 43.584-2.7024l60.986-69.05 60.986 69.05c11.324 12.821 30.763 14.026 43.584 2.7024l6.3716-5.6274c12.821-11.324 14.026-30.763 2.7024-43.584l-66.776-75.606 66.776-75.606c11.324-12.821 10.119-32.26-2.7024-43.584l-6.3716-5.6279c-12.821-11.324-32.26-10.118-43.584 2.7028l-60.986 69.05-60.986-69.05c-6.0158-6.8113-14.322-10.344-22.71-10.462z" fill="#d35f5f" stroke="#f4d7d7" stroke-width="20" style="paint-order:stroke fill markers"/>
</svg>
