<?xml version="1.0" encoding="UTF-8"?>
<svg width="512mm" height="512mm" version="1.1" viewBox="0 0 512 512" xmlns="http://www.w3.org/2000/svg">
 <path d="m100.42 9.9365c-13.724-0.19258-27.567 4.5453-38.712 14.389l-11.816 10.437c-23.777 21-26.013 57.05-5.0125 80.827l123.84 140.21-123.84 140.21c-21 23.777-18.765 59.826 5.0125 80.827l11.816 10.436c23.777 21 59.826 18.766 80.827-5.0115l113.1-128.05 113.1 128.05c21 23.777 57.05 26.012 80.827 5.0115l11.816-10.436c23.777-21 26.012-57.05 5.0116-80.827l-123.84-140.21 123.84-140.21c21-23.777 18.766-59.826-5.0116-80.827l-11.816-10.437c-23.777-21-59.826-18.765-80.827 5.0124l-113.1 128.05-113.1-128.05c-11.156-12.631-26.56-19.183-42.115-19.402z" fill="#d35f5f" stroke="#f4d7d7" stroke-width="20" style="paint-order:stroke fill markers"/>
</svg>
