<?xml version="1.0" encoding="UTF-8"?>
<svg enable-background="new 0 0 32 32" version="1.1" viewBox="0 0 32 32" xml:space="preserve" xmlns="http://www.w3.org/2000/svg">
  <style type="text/css">
    .st1{fill:#0d6efd;stroke:white;stroke-width:1.5;stroke-linecap:round;stroke-linejoin:round;stroke-miterlimit:10;}
  </style>  
  <path d="m2.625 0c-1.4492 0-2.625 1.1758-2.625 2.625v22.75c0 1.4492 1.1758 2.625 2.625 2.625h6.4199v-2.625h-6.4199v-22.75h8.75v5.6875c0 0.72731 0.58515 1.3125 1.3125 1.3125h5.6875v10.355h2.625v-12.768c0-0.69451-0.27929-1.3668-0.77148-1.8535l-4.5879-4.5879c-0.49213-0.4922-1.159-0.77148-1.8535-0.77148h-11.162zm11.375 2.8379 4.1621 4.1621h-4.1621v-4.1621zm-9.8125 9.9805c-0.2636-1e-6 -0.47852 0.21491-0.47852 0.47852v1.9082c-5e-7 0.2636 0.21491 0.47656 0.47852 0.47656h1.9082c0.2636-4e-6 0.47656-0.21296 0.47656-0.47656v-1.9082c1e-6 -0.2636-0.21296-0.47851-0.47656-0.47852h-1.9082zm4.7715 0.47852c-0.2636-1e-6 -0.47656 0.21296-0.47656 0.47656v0.95508c-5e-7 0.2636 0.21296 0.47656 0.47656 0.47656h7.8691c0.2636 0 0.47656-0.21296 0.47656-0.47656v-0.95508c0-0.2636-0.21296-0.47656-0.47656-0.47656h-7.8691zm-4.7715 4.2949c-0.2636-1e-6 -0.47852 0.21296-0.47852 0.47656v1.9102c-1e-6 0.2636 0.21491 0.47656 0.47852 0.47656h1.9082c0.2636-4e-6 0.47656-0.21296 0.47656-0.47656v-1.9102c-1e-7 -0.2636-0.21296-0.47656-0.47656-0.47656h-1.9082zm4.7715 0.47656c-0.2636-1e-6 -0.47656 0.21491-0.47656 0.47852v0.95312c3.4e-6 0.2636 0.21296 0.47852 0.47656 0.47852h7.8691c0.2636 0 0.47656-0.21492 0.47656-0.47852v-0.95312c0-0.2636-0.21296-0.47852-0.47656-0.47852h-7.8691z" fill="#f7b513" stroke-width=".029831"/><g transform="matrix(.68446 0 0 .68446 10.073 15.549)" stroke-opacity=".99608">
    <path d="m29 23h-26c-1.1 0-2-0.9-2-2v-10c0-1.1 0.9-2 2-2h26c1.1 0 2 0.9 2 2v10c0 1.1-0.9 2-2 2z" fill="#0d6efd" stroke="#00bfff" stroke-width="2.071"/>
    <g stroke="#fff" stroke-width="1.3806">
      <path class="st1" d="m13 19c-1.1 0-2-0.9-2-2v-2c0-1.1 0.9-2 2-2s2 0.9 2 2v2c0 1.1-0.9 2-2 2z" fill="none"/>
      <line class="st1" x1="18" x2="18" y1="13" y2="19"/>
      <line class="st1" x1="21" x2="18" y1="13" y2="17"/>
      <line class="st1" x1="21" x2="19" y1="19" y2="16" fill="none"/>
    </g>
  </g>
</svg>
