<?xml version="1.0" encoding="UTF-8"?>
<svg width="512mm" height="512mm" version="1.1" viewBox="0 0 512 512" xmlns="http://www.w3.org/2000/svg">
 <path d="m248.39 9.9999c-31.851-0.032083-57.52 25.584-57.552 57.436l-0.16146 123.19-123.24 0.0748c-31.851 0.029-57.471 25.696-57.441 57.548l0.01445 15.829c0.02907 31.852 25.694 57.471 57.546 57.442l122.94-0.0748-0.16095 122.98c-0.0322 31.852 25.585 57.521 57.436 57.552l15.829 0.0159c31.851 0.0319 57.52-25.584 57.551-57.437l0.16144-123.19 123.24-0.0748c32.948-2.3022 57.02-26.051 57.441-57.547l-0.015-15.829c-0.029-31.852-25.694-57.471-57.546-57.442l-122.94 0.0748 0.16145-122.98c-2.239-32.952-25.942-57.071-57.435-57.553z" fill="#5fd35f" stroke="#d7f4d7" stroke-width="20" style="paint-order:stroke fill markers"/>
</svg>
