<?xml version="1.0" encoding="UTF-8"?>
<svg enable-background="new 0 0 32 32" version="1.1" viewBox="0 0 32 32" xml:space="preserve" xmlns="http://www.w3.org/2000/svg">
   <g transform="translate(-2.411 -2.1161)"><g transform="matrix(.7243 0 0 .7243 4.8222 1.4925)">
   <path d="m29 23h-26c-1.1 0-2-0.9-2-2v-10c0-1.1 0.9-2 2-2h26c1.1 0 2 0.9 2 2v10c0 1.1-0.9 2-2 2z" fill="#0d6efd" stroke="#00bfff" stroke-width="2.071"/><g stroke="#fff" stroke-width="1.3806">
   <path class="st1" d="m13 19c-1.1 0-2-0.9-2-2v-2c0-1.1 0.9-2 2-2s2 0.9 2 2v2c0 1.1-0.9 2-2 2z" fill="none"/>
   <line class="st1" x1="18" x2="18" y1="13" y2="19"/>
   <line class="st1" x1="21" x2="18" y1="13" y2="17"/>
   <line class="st1" x1="21" x2="19" y1="19" y2="16" fill="none"/>
   </g></g>
   <g transform="matrix(.7243 0 0 .7243 8.8222 11.562)" stroke-opacity=".99608">
   <path d="m29 23h-26c-1.1 0-2-0.9-2-2v-10c0-1.1 0.9-2 2-2h26c1.1 0 2 0.9 2 2v10c0 1.1-0.9 2-2 2z" fill="#9494b8" stroke="#5c5c8a" stroke-width="2.071"/>
   <path class="st0" d="m13 19c-1.1 0-2-0.9-2-2v-2c0-1.1 0.9-2 2-2s2 0.9 2 2v2c0 1.1-0.9 2-2 2z" fill="none" stroke="#fff" stroke-width="1.3806"/><g fill-opacity=".99608" stroke="#fff" stroke-width="1.3806">
   <line class="st0" x1="18" x2="18" y1="13" y2="19" fill="#5c5c8a"/>
   <line class="st0" x1="21" x2="18" y1="13" y2="17" fill="#5c5c8a"/>
   <line class="st0" x1="21" x2="19" y1="19" y2="16" fill="#9494b8"/>
   </g></g>
   
   </g>
   
   <style type="text/css">
	.st0{fill:#9494b8;stroke:white;stroke-width:1.5;stroke-linecap:round;stroke-linejoin:round;stroke-miterlimit:10;}
    .st1{fill:#0d6efd;stroke:white;stroke-width:1.5;stroke-linecap:round;stroke-linejoin:round;stroke-miterlimit:10;}
   </style>
</svg>
