<?xml version="1.0" encoding="UTF-8"?>
<svg id="Icons" enable-background="new 0 0 32 32" version="1.1" viewBox="0 0 32 32" xml:space="preserve" xmlns="http://www.w3.org/2000/svg">
<path d="m29 23h-26c-1.1 0-2-0.9-2-2v-10c0-1.1 0.9-2 2-2h26c1.1 0 2 0.9 2 2v10c0 1.1-0.9 2-2 2z" fill="#37c837" stroke="#afe9af"/>
<path d="m25.75 19-2-3m2-3-3 4m0-4v6m-5 1e-6v0c-1.1 0-2-0.9-2-2v-2c0-1.1 0.9-2 2-2v0c1.1 0 2 0.9 2 2v2c0 1.1-0.9 2-2 2z" fill="none" stroke="#fff" stroke-linecap="round" stroke-linejoin="round" stroke-miterlimit="10" stroke-width="1.5"/>
<g transform="matrix(.025 0 0 .025 5 12.25)"><rect width="300" height="300" rx="44" ry="44" fill="#e82633"/><path d="m75 240c-8.28 0-15-6.72-15-15s6.72-15 15-15c24.89 0 42.85-32.66 61.86-67.23 22.38-40.69 45.53-82.77 88.14-82.77 8.28 0 15 6.72 15 15s-6.72 15-15 15c-24.89 0-42.85 32.66-61.86 67.23-22.38 40.69-45.53 82.77-88.14 82.77z" fill="#fff"/></g></svg>
