<?xml version="1.0" encoding="UTF-8"?>
<svg id="Icons" enable-background="new 0 0 32 32" version="1.1" viewBox="0 0 32 32" xml:space="preserve" xmlns="http://www.w3.org/2000/svg">
<path d="m29 23h-26c-1.1 0-2-0.9-2-2v-10c0-1.1 0.9-2 2-2h26c1.1 0 2 0.9 2 2v10c0 1.1-0.9 2-2 2z" fill="#0d6efd" stroke="#00bfff" stroke-width="2"/>
<path d="m20.437 11.176c-0.31031 0.0046-0.61812 0.13481-0.8408 0.38676l-5.1182 5.7908-2.1464-2.1356c-0.44862-0.44645-1.1691-0.445-1.6156 0.0046l-0.33152 0.33393c-0.44645 0.4486-0.445 1.1691 0.0047 1.6156l3.3382 3.32c0.4486 0.44645 1.1691 0.445 1.6155-0.0046l0.27628-0.27628c0.03529-0.03139 0.06883-0.06578 0.10088-0.10204l5.9421-6.722c0.41916-0.47418 0.3745-1.1928-0.09969-1.612l-0.35194-0.31109c-0.22221-0.19641-0.49854-0.29202-0.77234-0.28827z" fill="#5fd35f"/></svg>