<?xml version="1.0" encoding="UTF-8"?>
<svg id="Icons" enable-background="new 0 0 32 32" version="1.1" viewBox="0 0 32 32" xml:space="preserve" xmlns="http://www.w3.org/2000/svg">
<path d="m3.5 1.5h25c1.108 0 2 0.892 2 2v25c0 1.108-0.892 2-2 2h-25c-1.108 0-2-0.892-2-2v-25c0-1.108 0.892-2 2-2z" fill="#9494b8" stroke="#5c5c8a" stroke-width="2" style="paint-order:stroke fill markers"/>
<path d="m21.908 11.83h-5.0126l1.8504-5.638c0.17375-0.66023-0.32577-1.3118-1.0077-1.3118h-6.2548c-0.52124 0-0.96429 0.38658-1.0338 0.90348l-1.39 10.425c-0.082532 0.62548 0.40396 1.1815 1.0338 1.1815h5.1559l-2.0024 8.4484c-0.15637 0.66023 0.34749 1.2814 1.0121 1.2814 0.36487 0 0.71236-0.19112 0.90348-0.52124l7.6448-13.205c0.40396-0.69064-0.09556-1.5637-0.89913-1.5637z" fill="#fff"/></svg>