<?xml version="1.0" encoding="UTF-8"?>
<svg width="512mm" height="512mm" version="1.1" viewBox="0 0 512 512" xmlns="http://www.w3.org/2000/svg">
 <path d="m439.53 56.476c-12.836 0.19229-25.568 5.5765-34.779 15.998l-211.71 239.53-88.785-88.339c-18.557-18.467-48.36-18.407-66.827 0.19229l-13.713 13.812c-18.467 18.556-18.407 48.358 0.19231 66.827l138.08 137.33c18.556 18.467 48.36 18.407 66.825-0.19229l11.428-11.428c1.4614-1.298 2.846-2.721 4.1728-4.2208l245.79-278.05c17.338-19.614 15.491-49.339-4.1247-66.677l-14.557-12.868c-9.1916-8.1243-20.622-12.079-31.947-11.924z" fill="#5fd35f" stroke="#d7f4d7" stroke-width="20" style="paint-order:stroke fill markers"/>
</svg>
