<?xml version="1.0" encoding="UTF-8"?>
<svg width="512mm" height="512mm" version="1.1" viewBox="0 0 512 512" xmlns="http://www.w3.org/2000/svg">
 <path d="m209.24 10.108c-3.9816 0.1763-7.0828 1.8114-7.0828 5.437v68.154c-88.893 25.255-150.63 109.29-150.71 205.28-0.0098 117.64 91.573 213.02 204.55 213.02 112.97 9.6e-4 204.56-95.372 204.55-213.02-2e-3 -41.441-11.398-80.109-31.065-112.82-0.0113-0.0187-0.0181-0.04-0.0301-0.0569-0.74616-1.6488-2.0594-3.3156-2.88-4.9666-2.1872-4.395-7.4753-6.1782-11.873-3.9969l-49.051 24.481c-4.3979 2.181-6.1546 7.4783-3.9675 11.873 1.0158 2.09 2.5199 4.1966 3.4973 6.1424 15.102 22.478 23.977 49.837 23.981 79.351 6e-3 76.583-59.617 138.67-133.16 138.66-73.534-9e-3 -133.14-62.088-133.13-138.66 0.0688-54.823 31.158-104.44 79.293-126.61v67.624c0 8.8043 16.112 6.1656 22.277 0l96.074-96.104c6.1656-6.1656 6.1656-16.082 0-22.248l-96.073-96.104c-3.4681-3.468-10.075-5.661-15.194-5.437z" fill="#3771c8" stroke="#afdde9" stroke-width="20" style="paint-order:stroke fill markers"/>
</svg>
