<?xml version="1.0" encoding="UTF-8"?>
<svg version="1.1" viewBox="0 0 512 512" xmlns="http://www.w3.org/2000/svg">
 <g transform="matrix(8.6716 -8.6711 8.6716 8.6711 -151.57 264.68)" fill="#d40000" stroke="#800000">
  <path transform="matrix(.054916 .054916 -.054916 .054916 24 -5.1168)" d="m383.47-0.074219c-33.005 0-66.01 12.518-91.049 37.557l-27.314 27.314c-50.077 50.077-50.077 132.02 0 182.1s132.02 50.077 182.1 0l27.314-27.314c50.077-50.077 50.077-132.02 0-182.1-25.038-25.038-58.044-37.557-91.049-37.557zm0 51.441c19.803-1e-6 39.606 7.5121 54.629 22.535 30.046 30.046 30.046 79.212 0 109.26l-27.314 27.314c-30.046 30.046-79.212 30.046-109.26 0s-30.046-79.212 0-109.26l27.314-27.314c15.023-15.023 34.826-22.535 54.629-22.535zm-227.62 176.18c-33.005 0-66.01 12.52-91.049 37.559l-27.314 27.314c-50.077 50.077-50.077 132.02 0 182.1s132.02 50.077 182.1 0l27.314-27.314c50.077-50.077 50.077-132.02 0-182.1-25.038-25.038-58.044-37.559-91.049-37.559zm0 51.443c19.803 0 39.606 7.5121 54.629 22.535 30.046 30.046 30.046 79.212 0 109.26l-27.314 27.314c-30.046 30.046-79.212 30.046-109.26 0-30.046-30.046-30.046-79.212 0-109.26l27.314-27.314c15.023-15.023 34.826-22.535 54.629-22.535z" stroke-width="12.876"/>
  <path d="m33 21h-18c-1.1 0-2 0.9-2 2s0.9 2 2 2h18c1.1 0 2-0.9 2-2s-0.9-2-2-2z"/>
 </g>
 <g transform="matrix(.76704 0 0 .76704 113.06 113.27)">
  <path d="m100.38 290.37c-18.098 0-32.67 14.669-32.67 32.887v155.86c0 18.218 14.571 32.885 32.67 32.885h156.29c18.098 0 32.668-14.667 32.668-32.885v-155.86c0-18.218-14.57-32.887-32.668-32.887zm222.66 0c-18.098 0-32.668 14.669-32.668 32.887v155.86c0 18.218 14.57 32.885 32.668 32.885h156.29c18.098 0 32.668-14.667 32.668-32.885v-155.86c0-18.218-14.57-32.887-32.668-32.887zm-206.15 23.408h123.28c14.276 0 25.768 11.568 25.768 25.938v122.94c0 14.37-11.492 25.938-25.768 25.938h-123.28c-14.276 0-25.768-11.568-25.768-25.938v-122.94c0-14.37 11.492-25.938 25.768-25.938zm222.66 0h123.28c14.276 0 25.768 11.568 25.768 25.938v122.94c0 14.37-11.492 25.938-25.768 25.938h-123.28c-14.276 0-25.768-11.568-25.768-25.938v-122.94c0-14.37 11.492-25.938 25.768-25.938z" fill="#ccc"/>
  <path d="m113.41 308.84c-15.082 0-27.225 12.222-27.225 27.404v129.88c0 15.182 12.143 27.404 27.225 27.404h130.24c15.082 0 27.223-12.222 27.223-27.404v-129.88c0-15.182-12.141-27.404-27.223-27.404zm222.65 0c-15.082 0-27.225 12.222-27.225 27.404v129.88c0 15.182 12.143 27.404 27.225 27.404h130.24c15.082 0 27.223-12.222 27.223-27.404v-129.88c0-15.182-12.141-27.404-27.223-27.404z" fill="#e6e6e6"/>
  <path d="m230.32 337.08-128.21 64.104 128.21 64.105zm119.07 0v128.21l128.21-64.105z" fill="#008000"/>
 </g>
</svg>
