<?xml version="1.0" encoding="UTF-8"?>
<svg version="1.1" viewBox="0 0 1000 1000" xmlns="http://www.w3.org/2000/svg">
<path d="m41.159 11.64c-10.15 2.4899-19.72 9.5797-25.279 18.96l-5.1699 8.9998-0.5699 372.46c-0.38 274.03 0 375.14 1.5299 382.61 2.49 11.68 10.34 21.639 21.26 27.379 7.0798 3.4499 13.21 3.6399 216.2 3.6399h208.73v-38.299h-407.9v-614.7h900.04v653h4.7899c13.79 0 30.069-15.51 33.509-31.409 1.5299-6.8899 1.9199-119.5 1.5299-382.23l-0.57-372.46-5.3598-8.9998c-3.45-5.9398-8.4298-10.92-14.36-14.36l-8.9998-5.3599-456.72-0.38c-251.25 0-459.41 0.38-462.67 1.15zm643.24 44.809c27.959 16.47 26.039 57.829-3.0599 71.998-27.189 13.21-58.789-6.8898-58.789-37.149-0.01-31.779 34.079-50.929 61.848-34.849zm122.56 0c27.959 16.47 26.039 57.829-3.0599 71.998-27.189 13.21-58.599-6.6998-58.789-36.959-0.2-31.779 34.269-51.119 61.848-35.039zm122.56 0c27.959 16.47 26.049 57.829-3.0599 71.998-27.189 13.21-58.599-6.6998-58.789-36.959-0.2-31.779 34.269-51.119 61.849-35.039z" fill="#669"/>
<path d="m202.6 298.31c-9.7698 3.06-19.73 11.49-24.319 20.68-3.8299 7.2798-4.0199 10.53-3.4499 60.898l0.5699 53.239 5.1699 7.6598c3.2499 4.9799 8.6198 9.5798 15.13 12.83l10.15 4.9799h588.29l9.7697-4.7899c6.1299-3.0699 11.68-7.8498 15.13-12.83l5.5498-7.8498 0.57-53.239c0.57-50.169 0.38-53.619-3.2599-60.898-5.1699-9.7697-15.89-18.58-26.229-21.07-12.07-3.0599-583.11-2.6699-593.07 0.39zm584.64 78.898v41.169h-247.02v-82.338h247.03v41.169z" fill="#008000"/>
<path d="m560.6 583.21c-33.014 0-59.57 26.557-59.57 59.57v287.06c0 33.014 26.557 59.676 59.57 59.676h287.16c33.014 0 59.57-26.662 59.57-59.676v-287.06c0-33.014-26.557-59.57-59.57-59.57zm245.16 81.261c11.214 0 20.315 9.1012 20.315 20.315s-9.1012 20.315-20.315 20.315c-33.71 0-58.054 44.176-83.8 90.996-30.31 55.108-61.644 112.16-119.35 112.16-11.214 0-20.315-9.1012-20.315-20.315s9.1012-20.315 20.315-20.315c33.71 0 58.054-44.281 83.801-91.101 30.31-55.108 61.643-112.05 119.35-112.05z" fill="#e82633"/></svg>