<?xml version="1.0"?>
<svg version="1.1" xmlns="http://www.w3.org/2000/svg" xmlns:xlink="http://www.w3.org/1999/xlink" x="0px" y="0px" viewBox="0 0 1000 1000" enable-background="new 0 0 1000 1000" xml:space="preserve">
  <g>
    <g transform="translate(0.000000,512.000000) scale(0.100000,-0.100000)">
      <path fill="#666699" d="M411.6,5003.6c-101.5-24.9-197.2-95.8-252.8-189.6l-51.7-90l-5.7-3724.7c-3.8-2740.4,0-3751.5,15.3-3826.2c24.9-116.8,103.4-216.4,212.6-273.8c70.8-34.5,132.1-36.4,2162.1-36.4h2087.4v191.5v191.5H2539.2H499.7V319.5v3073.6H5000h4500.3V128v-3265.1h47.9c137.9,0,300.7,155.1,335.1,314.1c15.3,68.9,19.2,1195,15.3,3822.4l-5.7,3724.7l-53.6,90c-34.5,59.4-84.3,109.2-143.6,143.6l-90,53.6l-4567.3,3.8C2525.8,5015.1,444.2,5011.3,411.6,5003.6z M6844.2,4555.5c279.6-164.7,260.4-578.3-30.6-720c-271.9-132.1-587.9,68.9-587.9,371.5C6225.6,4524.8,6566.5,4716.3,6844.2,4555.5z M8069.8,4555.5c279.6-164.7,260.4-578.3-30.6-720c-271.9-132.1-586,67-587.9,369.6C7449.3,4522.9,7794,4716.3,8069.8,4555.5z M9295.4,4555.5c279.6-164.7,260.5-578.3-30.6-720c-271.9-132.1-586,67-587.9,369.6C8674.9,4522.9,9019.6,4716.3,9295.4,4555.5z"/>
      <path fill="green" d="M2026,1319.1c-97.7-30.6-197.3-114.9-243.2-206.8c-38.3-72.8-40.2-105.3-34.5-609l5.7-532.4l51.7-76.6c32.5-49.8,86.2-95.8,151.3-128.3l101.5-49.8H5000h2941.5l97.7,47.9c61.3,30.7,116.8,78.5,151.3,128.3l55.5,78.5l5.7,532.4c5.7,501.7,3.8,536.2-32.6,609c-51.7,97.7-158.9,185.8-262.3,210.7C7836.1,1353.6,2125.6,1349.7,2026,1319.1z M7872.5,530.1V118.4H6637.3H5402.2v411.7v411.7h1235.2h1235.2V530.1z"/>
      <path fill="#cc0000" d="M6700.5-731.9c-417.5-74.7-802.4-275.8-1097.3-574.5c-183.9-185.8-291.1-339-404.1-574.5C4835.3-2652.6,5000-3579.5,5609-4184.7c735.4-729.6,1901.6-790.9,2709.7-139.8c708.6,568.8,949.9,1533.9,595.6,2380.4c-101.5,243.2-227.9,427.1-436.6,637.7c-281.5,279.6-566.8,444.3-949.8,541.9C7319.1-710.8,6913.1-695.5,6700.5-731.9z M8131.1-1949.8l287.3-287.3l-867.5-867.5l-865.6-865.6l-507.5,507.5l-507.5,507.5l291.1,291.1l293,293l214.5-214.5l216.4-216.4l570.7,570.7c312.1,312.2,572.6,568.8,578.3,568.8S7974-1792.8,8131.1-1949.8z"/>
    </g>
  </g>

</svg>
