<?xml version="1.0" encoding="UTF-8"?>
<svg version="1.1" viewBox="0 0 512 512" xmlns="http://www.w3.org/2000/svg">
 <path d="m444.06 0h-398.12c-25.371 0-45.937 23.505-45.937 52.5v385c0 28.995 20.567 52.5 45.937 52.5h398.12c25.371 0 45.938-23.505 45.938-52.5v-385c0-28.995-20.567-52.5-45.938-52.5zm-290.94 455h-107.19c-8.4573 0-15.312-7.8345-15.312-17.5v-87.5h122.5zm0-140h-122.5v-105h122.5zm0-140h-122.5v-105h122.5zm153.12 280h-122.5v-105h122.5zm0-140h-122.5v-105h122.5zm0-140h-122.5v-105h122.5zm153.12 175v87.5c0 9.6655-6.8552 17.5-15.312 17.5h-107.19v-105zm0-35h-122.5v-105h122.5zm0-140h-122.5v-105h122.5z" fill="#2a7fff"/>
 <path d="m444.06 0h-398.12c-25.371 0-45.937 20.083-45.937 44.857v7.4761h490v-7.4761c0-24.774-20.567-44.857-45.938-44.857z" fill="#0055d4"/>
 <path d="m323.04 290.37c-18.098 0-32.668 14.667-32.668 32.885v155.86c0 18.218 14.57 32.885 32.668 32.885h156.29c18.098 0 32.668-14.667 32.668-32.885v-155.86c0-18.218-14.57-32.885-32.668-32.885zm16.506 23.407h123.28c14.276 0 25.767 11.567 25.767 25.937v122.94c0 14.37-11.491 25.937-25.767 25.937h-123.28c-14.276 0-25.767-11.567-25.767-25.937v-122.94c0-14.37 11.491-25.937 25.767-25.937z" fill="#ccc"/>
 <path d="m336.06 308.84c-15.082 0-27.224 12.222-27.224 27.404v129.88c0 15.182 12.142 27.404 27.224 27.404h130.24c15.082 0 27.224-12.222 27.224-27.404v-129.88c0-15.182-12.142-27.404-27.224-27.404z" fill="#e6e6e6"/>
 <path d="m349.39 337.08v128.21l128.21-64.106z" fill="#008000"/>
 <path d="m100.38 290.37c-18.098 0-32.669 14.667-32.669 32.885v155.86c0 18.218 14.57 32.885 32.669 32.885h156.29c18.098 0 32.668-14.667 32.668-32.885v-155.86c0-18.218-14.57-32.885-32.668-32.885zm16.506 23.407h123.28c14.276 0 25.767 11.567 25.767 25.937v122.94c0 14.37-11.491 25.937-25.767 25.937h-123.28c-14.276 0-25.767-11.567-25.767-25.937v-122.94c0-14.37 11.491-25.937 25.767-25.937z" fill="#ccc"/>
 <path d="m113.41 308.84c-15.082 0-27.224 12.222-27.224 27.404v129.88c0 15.182 12.142 27.404 27.224 27.404h130.24c15.082 0 27.224-12.222 27.224-27.404v-129.88c0-15.182-12.142-27.404-27.224-27.404z" fill="#e6e6e6"/>
 <path d="m230.32 337.08v128.21l-128.21-64.106z" fill="#008000"/>
</svg>
