<?xml version="1.0" encoding="UTF-8"?>
<svg id="Icons" enable-background="new 0 0 32 32" version="1.1" viewBox="0 0 32 32" xml:space="preserve" xmlns="http://www.w3.org/2000/svg">
<style type="text/css">
	.st0{fill:#0d6efd;stroke:white;stroke-width:1.5;stroke-linecap:round;stroke-linejoin:round;stroke-miterlimit:10;}
	.st1{fill:blue;stroke:white;stroke-width:2;stroke-linecap:round;stroke-linejoin:round;stroke-miterlimit:10;}
	.st2{fill:#0d6efd;stroke:#00bfff;stroke-width:2;stroke-linecap:round;stroke-linejoin:round;stroke-miterlimit:10;}
</style>





<path d="m1.8167 0h28.367c1.0065 0 1.8167 0.81027 1.8167 1.8167v28.366c0 1.0065-0.81027 1.8168-1.8167 1.8168h-28.367c-1.0065 0-1.8167-0.81027-1.8167-1.8168v-28.366c0-1.0065 0.81027-1.8167 1.8167-1.8167z" fill="#3490dc" stroke-width=".1697" style="paint-order:stroke fill markers"/><path d="m4.2795 27.078c-0.05473 0.23943-0.51417-0.12538-0.72665-0.25308-0.17017-0.10227-0.25893-0.17367-0.40734-0.32762-0.25513-0.26466-0.4169-0.57592-0.49686-0.95604-0.03627-0.17246-0.03636-0.53898-1.42e-4 -0.72125 0.07515-0.37853 0.25046-0.70337 0.53098-0.98389 0.29015-0.29015 0.61618-0.46093 1.0295-0.53929 0.08084-0.01531 2.3825-0.01913 11.799-0.01913 11.174 0 11.704 7.81e-4 11.829 0.0267 0.3855 0.07849 0.69877 0.24793 0.98388 0.53215 0.3766 0.37539 0.55752 0.81219 0.55752 1.346 0 0.53386-0.18092 0.97065-0.55752 1.346-0.28175 0.28086-0.57396 0.44013-0.9784 0.53325-0.09847 0.02272-1.0072 0.02467-11.783 0.02701-6.7997 0.0015-11.767-0.07075-11.781-0.01093zm0-9.187c-0.24362-0.0312-0.51417-0.12538-0.72665-0.25309-0.17017-0.10227-0.25893-0.17366-0.40734-0.32762-0.25513-0.26465-0.4169-0.57592-0.49686-0.95603-0.03627-0.17245-0.03636-0.53898-1.42e-4 -0.72125 0.07515-0.37853 0.25046-0.70336 0.53098-0.98388 0.29015-0.29016 0.61618-0.46095 1.0295-0.5393 0.08084-0.01536 2.3825-0.01905 11.799-0.01905 11.174 0 11.704 0.0011 11.829 0.02669 0.3855 0.0785 0.69877 0.24794 0.98388 0.53215 0.3766 0.3754 0.55752 0.8122 0.55752 1.3461 0 0.53385-0.18092 0.97065-0.55752 1.346-0.28175 0.28086-0.57396 0.44012-0.9784 0.53324-0.09847 0.02272-1.0072 0.0248-11.783 0.02704-6.7997 0.0015-11.72-0.0032-11.781-0.01093zm0-9.1869c-0.24362-0.03114-0.51417-0.12539-0.72665-0.25309-0.17017-0.10227-0.25893-0.17366-0.40734-0.32761-0.25513-0.26466-0.4169-0.57592-0.49686-0.95603-0.03627-0.17245-0.03636-0.53899-1.42e-4 -0.72125 0.07515-0.37853 0.25046-0.70337 0.53098-0.98388 0.29015-0.29016 0.61618-0.46095 1.0295-0.5393 0.08084-0.015361 2.3825-0.019051 11.799-0.019051 11.174 0 11.704 0.00108 11.829 0.026691 0.3855 0.078501 0.69877 0.24794 0.98388 0.53214 0.3766 0.37541 0.55752 0.8122 0.55752 1.3461 0 0.53385-0.18092 0.97065-0.55752 1.3461-0.28175 0.28085-0.57396 0.44011-0.9784 0.53323-0.09847 0.02264-1.0072 0.02478-11.783 0.02698-6.7997 0.0016-11.72-0.0034-11.781-0.01096z" fill="#fff" stroke-width=".01494"/></svg>
